<svg width="41" height="35" viewBox="0 0 41 35" fill="none" xmlns="http://www.w3.org/2000/svg">
<path d="M22.3715 4.154L22.372 4.15353C25.9997 0.430459 31.8078 -0.113448 35.665 3.15552C40.1501 6.96303 40.389 13.8075 36.3657 17.9372L36.3655 17.9374L21.1673 33.5463C21.1672 33.5464 21.1671 33.5465 21.1671 33.5465C20.5778 34.1512 19.6312 34.1512 19.0419 33.5465C19.0419 33.5465 19.0418 33.5464 19.0417 33.5463L3.84394 17.9379C-0.172246 13.8082 0.0666063 6.96336 4.55157 3.15572C8.40925 -0.113804 14.2248 0.430959 17.8442 4.15282L17.8453 4.154L19.3927 5.73991L20.1084 6.47352L20.8242 5.73991L22.3715 4.154Z" stroke="white" stroke-width="2"/>
</svg>
