<svg width="35" height="43" viewBox="0 0 35 43" fill="none" xmlns="http://www.w3.org/2000/svg">
<path d="M27.95 21.5C31.5123 21.5 34.4 24.3878 34.4 27.95C34.4 32.7491 32.4264 36.5942 29.1878 39.1936C26.0003 41.7521 21.7282 43 17.2 43C12.6718 43 8.39971 41.7521 5.21225 39.1936C1.97357 36.5942 0 32.7491 0 27.95C0 24.5975 2.55797 21.8421 5.82874 21.5295L6.44991 21.5H27.95ZM17.2 0C21.9497 0 25.8 3.85035 25.8 8.6C25.8 13.3497 21.9497 17.2 17.2 17.2C12.4503 17.2 8.6 13.3497 8.6 8.6C8.6 3.85035 12.4503 0 17.2 0Z" fill="white"/>
</svg>
