<svg width="43" height="43" viewBox="0 0 43 43" fill="none" xmlns="http://www.w3.org/2000/svg">
<path d="M21.4785 0C9.6105 0 0 9.632 0 21.5C0 33.368 9.6105 43 21.4785 43C33.368 43 43 33.368 43 21.5C43 9.632 33.368 0 21.4785 0ZM21.5 38.7C11.997 38.7 4.3 31.003 4.3 21.5C4.3 11.997 11.997 4.3 21.5 4.3C31.003 4.3 38.7 11.997 38.7 21.5C38.7 31.003 31.003 38.7 21.5 38.7ZM29.025 19.35C30.8095 19.35 32.25 17.9095 32.25 16.125C32.25 14.3405 30.8095 12.9 29.025 12.9C27.2405 12.9 25.8 14.3405 25.8 16.125C25.8 17.9095 27.2405 19.35 29.025 19.35ZM13.975 19.35C15.7595 19.35 17.2 17.9095 17.2 16.125C17.2 14.3405 15.7595 12.9 13.975 12.9C12.1905 12.9 10.75 14.3405 10.75 16.125C10.75 17.9095 12.1905 19.35 13.975 19.35ZM21.5 33.325C26.5095 33.325 30.7665 30.186 32.4865 25.8H10.5135C12.2335 30.186 16.4905 33.325 21.5 33.325Z" fill="white"/>
</svg>
