<svg width="41" height="43" viewBox="0 0 41 43" fill="none" xmlns="http://www.w3.org/2000/svg">
<path fill-rule="evenodd" clip-rule="evenodd" d="M20.5 0C31.8219 0 41 9.62579 41 21.5C41 33.3741 31.8219 43 20.5 43C9.1782 43 0 33.3741 0 21.5C0 9.62579 9.1782 0 20.5 0ZM22.5545 19.35H18.4545V32.25H22.5545V19.35ZM20.5208 10.2125C19.0262 10.2125 17.942 11.3433 17.942 12.8702C17.942 14.4588 18.9976 15.5875 20.5208 15.5875C21.9848 15.5875 23.067 14.4588 23.067 12.9C23.067 11.3433 21.9848 10.2125 20.5208 10.2125Z" fill="white"/>
</svg>
