<svg width="35" height="35" viewBox="0 0 35 35" fill="none" xmlns="http://www.w3.org/2000/svg">
<path d="M19.6098 4.10243L19.6094 4.10292L18.2628 5.68883L17.5005 6.58652L16.7382 5.68883L15.3916 4.10292L15.3905 4.10168C12.2751 0.420588 7.36468 -0.0737571 4.09614 3.10936L19.6098 4.10243ZM19.6098 4.10243C22.7326 0.420002 27.6366 -0.073362 30.9047 3.10923C34.8089 6.91776 35.0301 13.8367 31.5099 17.9884L31.5098 17.9886M19.6098 4.10243L31.5098 17.9886M31.5098 17.9886L18.2827 33.5975C18.2826 33.5975 18.2825 33.5976 18.2825 33.5977C17.8274 34.1342 17.1665 34.1341 16.7115 33.5975L3.48479 17.989M31.5098 17.9886L3.48479 17.989M3.48479 17.989C-0.0291953 13.8373 0.192013 6.91821 4.09594 3.10956L3.48479 17.989Z" stroke="white" stroke-width="2"/>
</svg>
