<svg width="39" height="43" viewBox="0 0 39 43" fill="none" xmlns="http://www.w3.org/2000/svg">
<path d="M37.1276 16.397L37.4666 16.0444L37.1276 16.397C38.0026 17.2381 38.5 18.4103 38.5 19.6385V38.043C38.5 40.5123 36.5333 42.5 34.125 42.5H29.25C26.8417 42.5 24.875 40.5123 24.875 38.043V29.7813C24.875 28.6006 23.9314 27.6291 22.75 27.6291H16.25C15.0686 27.6291 14.125 28.6006 14.125 29.7813V38.043C14.125 40.5123 12.1584 42.5 9.75 42.5H4.875C2.46658 42.5 0.5 40.5123 0.5 38.043V19.6385C0.5 18.4103 0.9974 17.2381 1.87233 16.397L17.6137 1.26379C18.6731 0.245404 20.3269 0.245404 21.3863 1.26379L37.1276 16.397Z" fill="white" stroke="white"/>
</svg>
