<svg width="39" height="43" viewBox="0 0 39 43" fill="none" xmlns="http://www.w3.org/2000/svg">
<path d="M21.7328 0.903339C20.4799 -0.301113 18.5201 -0.301113 17.2672 0.903339L1.52581 16.0365C0.55185 16.9729 0 18.2756 0 19.6385V38.043C0 40.7806 2.1826 43 4.875 43H9.75C12.4424 43 14.625 40.7806 14.625 38.043V29.7813C14.625 28.8689 15.3525 28.1291 16.25 28.1291H22.75C23.6475 28.1291 24.375 28.8689 24.375 29.7813V38.043C24.375 40.7806 26.5577 43 29.25 43H34.125C36.8173 43 39 40.7806 39 38.043V19.6385C39 18.2756 38.4482 16.9729 37.4741 16.0365L21.7328 0.903339Z" fill="white"/>
</svg>
